<svg xmlns="http://www.w3.org/2000/svg" width="512" height="512" viewBox="0 0 512 512" role="img" aria-labelledby="title desc">
  <title id="title">Okini beer mark</title>
  <desc id="desc">A foamy amber beer glass with a gold star on a deep blue background.</desc>
  <defs>
    <linearGradient id="beer" x1="0" y1="0" x2="1" y2="1">
      <stop offset="0" stop-color="#ffd66b" />
      <stop offset="0.42" stop-color="#e99a18" />
      <stop offset="1" stop-color="#a85a08" />
    </linearGradient>
    <linearGradient id="foam" x1="0" y1="0" x2="0" y2="1">
      <stop offset="0" stop-color="#fffaf0" />
      <stop offset="1" stop-color="#f5dfb0" />
    </linearGradient>
    <filter id="shadow" x="-20%" y="-20%" width="140%" height="150%">
      <feDropShadow dx="0" dy="4" stdDeviation="3" flood-color="#061622" flood-opacity="0.4" />
    </filter>
    <clipPath id="glass">
      <path d="M27 31h74l-7 67c-1 11-8 17-19 17H53c-11 0-18-6-19-17z" />
    </clipPath>
  </defs>

  <g transform="translate(256 256) scale(5) translate(-64 -64)" filter="url(#shadow)">
    <path d="M27 31h74l-7 67c-1 11-8 17-19 17H53c-11 0-18-6-19-17z" fill="url(#beer)" stroke="#fff1cb" stroke-width="4" stroke-linejoin="round" />

    <g clip-path="url(#glass)">
      <path d="M25 52c12-5 20 4 31-1 12-6 19 3 30-2 8-4 14-2 19 1v20H25z" fill="#f2ad2c" opacity="0.72" />
      <path d="M42 42c5-10 13-5 17-12 4-7 12-4 15 2 4-7 14-6 17 3 8-4 15 1 15 10 0 9-8 13-17 11-8-2-12 3-20 0-8-3-13 2-20-1-9-4-12-8-7-13z" fill="url(#foam)" />
      <circle cx="48" cy="32" r="3" fill="#fffdf8" opacity="0.85" />
      <circle cx="83" cy="27" r="4" fill="#fffdf8" opacity="0.9" />
      <circle cx="95" cy="39" r="2.5" fill="#fffdf8" opacity="0.75" />
      <path d="M39 55c4 25 6 40 12 49" fill="none" stroke="#ffe9a7" stroke-linecap="round" stroke-opacity="0.48" stroke-width="5" />
      <path d="M43 78c15 7 30 7 45 0" fill="none" stroke="#8d4608" stroke-linecap="round" stroke-opacity="0.2" stroke-width="3" />
    </g>

    <path d="M51 63l5.8 11.8 13 1.9-9.4 9.1 2.2 12.9L51 93.6l-11.6 6.1 2.2-12.9-9.4-9.1 13-1.9z" fill="#fff0a3" opacity="0.96" transform="translate(13 -14) scale(.82)" />
    <path d="M28 31h72" stroke="#fff8e8" stroke-linecap="round" stroke-width="5" />
  </g>

  <path d="M45 115h38" stroke="#f8d47b" stroke-linecap="round" stroke-opacity="0.45" stroke-width="3" />
</svg>
